<svg width="311" height="131" viewBox="0 0 311 131" fill="none" xmlns="http://www.w3.org/2000/svg">
<path d="M2 0.61322H308.552C309.381 0.61322 310.052 1.2848 310.052 2.11322V128.531C310.052 129.359 309.381 130.031 308.552 130.031H6.95909L0.5 123.532V2.11322C0.5 1.28479 1.17157 0.61322 2 0.61322Z" fill="#000C1A" stroke="white"/>
<path fill-rule="evenodd" clip-rule="evenodd" d="M300.25 7.37702L309.63 17.678L310.37 17.0048L300.99 6.70374C300.516 6.18347 299.845 5.88693 299.141 5.88693H184.518C184.103 5.88693 183.706 5.71465 183.423 5.41115L178.365 -5.48363e-06L177.635 0.682806L182.692 6.09396C183.165 6.5998 183.826 6.88693 184.518 6.88693H299.141C299.564 6.88693 299.966 7.06485 300.25 7.37702Z" fill="white"/>
<path fill-rule="evenodd" clip-rule="evenodd" d="M137.346 124.841L110.577 124.841C110.167 124.841 109.774 125.009 109.491 125.306L104.362 130.686L103.638 129.996L108.768 124.616C109.239 124.121 109.893 123.841 110.577 123.841H180V123.917L208.939 123.917C209.713 123.917 210.443 124.276 210.917 124.888L214.896 130.036L214.104 130.647L210.125 125.5C209.841 125.132 209.403 124.917 208.939 124.917L137.346 124.917V124.841Z" fill="#FFFEFE"/>
<path d="M47.169 56.2H50.145L56.289 73H52.977L51.609 69.28H45.705L44.337 73H41.025L47.169 56.2ZM50.889 66.592L48.657 60.208H48.609L46.449 66.592H50.889ZM60.8606 56.2H71.6126L74.4926 59.08V70.12L71.6126 73H60.8606V56.2ZM70.0046 70.216L71.2286 68.992V60.208L70.0046 58.984H64.1246V70.216H70.0046ZM80.2641 56.2H91.0161L93.8961 59.08V70.12L91.0161 73H80.2641V56.2ZM89.4081 70.216L90.6321 68.992V60.208L89.4081 58.984H83.5281V70.216H89.4081ZM99.6675 56.2H111.811V58.96H102.931V63.208H111.115V65.92H102.931V70.24H111.811V73H99.6675V56.2ZM117.102 56.2H127.854L130.734 59.08V70.12L127.854 73H117.102V56.2ZM126.246 70.216L127.47 68.992V60.208L126.246 58.984H120.366V70.216H126.246ZM144.605 56.2H147.965L152.141 69.112H152.189L156.365 56.2H159.725L153.749 73H150.581L144.605 56.2ZM164.414 56.2H176.558V58.96H167.678V63.208H175.862V65.92H167.678V70.24H176.558V73H164.414V56.2ZM181.849 56.2H185.113V63.232H192.217V56.2H195.481V73H192.217V66.016H185.113V73H181.849V56.2ZM201.607 56.2H204.871V73H201.607V56.2ZM210.759 70.24V58.96L213.519 56.2H221.727L224.439 58.912V61.48H221.175V60.112L220.047 58.984H215.247L214.023 60.208V68.992L215.247 70.216H220.047L221.175 69.088V67.72H224.439V70.288L221.727 73H213.519L210.759 70.24ZM229.606 56.2H232.87V70.24H241.27V73H229.606V56.2ZM245.939 56.2H258.083V58.96H249.203V63.208H257.387V65.92H249.203V70.24H258.083V73H245.939V56.2ZM263.014 70.408V68.008H266.23V69.424L267.022 70.216H271.99L272.806 69.4V66.616L272.014 65.824H265.654L263.062 63.232V58.792L265.654 56.2H273.238L275.83 58.792V61.216H272.614V59.776L271.822 58.984H267.07L266.278 59.776V62.248L267.07 63.04H273.43L276.022 65.632V70.36L273.382 73H265.606L263.014 70.408Z" fill="white"/>
</svg>
