<svg width="300" height="64" viewBox="0 0 300 64" fill="none" xmlns="http://www.w3.org/2000/svg">
<rect x="0.5" y="0.5" width="299" height="63" rx="1.5" stroke="white" stroke-opacity="0.8"/>
<g filter="url(#filter0_dd_1_151)">
<path d="M39.1934 20.7H40.3094L42.6134 27H41.3714L40.8584 25.605H38.6444L38.1314 27H36.8894L39.1934 20.7ZM40.5884 24.597L39.7514 22.203H39.7334L38.9234 24.597H40.5884ZM44.422 25.92V20.7H45.646V25.497L46.105 25.956H47.869L48.328 25.497V20.7H49.552V25.92L48.472 27H45.502L44.422 25.92ZM53.5048 21.735H51.6238V20.7H56.6098V21.735H54.7288V27H53.5048V21.735ZM58.4578 25.965V21.735L59.4928 20.7H62.7328L63.7678 21.735V25.965L62.7328 27H59.4928L58.4578 25.965ZM62.0848 25.956L62.5438 25.497V22.203L62.0848 21.744H60.1408L59.6818 22.203V25.497L60.1408 25.956H62.0848ZM66.1996 20.7H67.3336L69.2056 24.768H69.2236L71.1046 20.7H72.2386V27H71.0596V23.166H71.0416L69.5926 26.118H68.8366L67.3966 23.166H67.3786V27H66.1996V20.7ZM76.5206 20.7H77.6366L79.9406 27H78.6986L78.1856 25.605H75.9716L75.4586 27H74.2166L76.5206 20.7ZM77.9156 24.597L77.0786 22.203H77.0606L76.2506 24.597H77.9156ZM82.5473 21.735H80.6663V20.7H85.6523V21.735H83.7713V27H82.5473V21.735ZM87.7672 20.7H88.9912V27H87.7672V20.7ZM91.4695 25.965V21.735L92.5045 20.7H95.5825L96.5995 21.717V22.68H95.3755V22.167L94.9525 21.744H93.1525L92.6935 22.203V25.497L93.1525 25.956H94.9525L95.3755 25.533V25.02H96.5995V25.983L95.5825 27H92.5045L91.4695 25.965ZM102.609 20.7H103.707L106.515 24.975H106.533V20.7H107.712V27H106.614L103.806 22.734H103.788V27H102.609V20.7ZM110.235 25.92V20.7H111.459V25.497L111.918 25.956H113.682L114.141 25.497V20.7H115.365V25.92L114.285 27H111.315L110.235 25.92ZM117.886 20.7H119.02L120.892 24.768H120.91L122.791 20.7H123.925V27H122.746V23.166H122.728L121.279 26.118H120.523L119.083 23.166H119.065V27H117.886V20.7ZM126.443 20.7H130.394L131.294 21.6V23.364L130.934 23.733L131.573 24.381V26.028L130.601 27H126.443V20.7ZM129.764 23.337L130.088 23.013V22.041L129.773 21.726H127.64V23.337H129.764ZM129.98 25.974L130.367 25.587V24.705L129.98 24.318H127.64V25.974H129.98ZM133.823 20.7H138.377V21.735H135.047V23.328H138.116V24.345H135.047V25.965H138.377V27H133.823V20.7ZM145.581 24.912V27H144.357V25.191L143.817 24.588H141.855V27H140.631V20.7H144.582L145.545 21.672V23.58L144.933 24.201L145.581 24.912ZM141.855 23.58H144.024L144.339 23.265V22.041L144.024 21.726H141.855V23.58ZM151.856 20.7H155.807L156.77 21.672V23.877L155.798 24.858H153.08V27H151.856V20.7ZM155.249 23.832L155.564 23.517V22.041L155.249 21.726H153.08V23.832H155.249ZM159.024 20.7H160.248V25.965H163.398V27H159.024V20.7ZM167.183 20.7H168.299L170.603 27H169.361L168.848 25.605H166.634L166.121 27H164.879L167.183 20.7ZM168.578 24.597L167.741 22.203H167.723L166.913 24.597H168.578ZM173.21 21.735H171.329V20.7H176.315V21.735H174.434V27H173.21V21.735ZM178.385 20.7H182.939V21.735H179.609V23.328H182.678V24.345H179.609V25.965H182.939V27H178.385V20.7ZM193.945 24.912V27H192.721V25.191L192.181 24.588H190.219V27H188.995V20.7H192.946L193.909 21.672V23.58L193.297 24.201L193.945 24.912ZM190.219 23.58H192.388L192.703 23.265V22.041L192.388 21.726H190.219V23.58ZM196.418 20.7H200.972V21.735H197.642V23.328H200.711V24.345H197.642V25.965H200.972V27H196.418V20.7ZM203.136 25.965V21.735L204.171 20.7H207.249L208.266 21.717V22.68H207.042V22.167L206.619 21.744H204.819L204.36 22.203V25.497L204.819 25.956H206.619L207.042 25.533V25.02H208.266V25.983L207.249 27H204.171L203.136 25.965ZM210.384 25.965V21.735L211.419 20.7H214.659L215.694 21.735V25.965L214.659 27H211.419L210.384 25.965ZM214.011 25.956L214.47 25.497V22.203L214.011 21.744H212.067L211.608 22.203V25.497L212.067 25.956H214.011ZM218.036 25.965V21.735L219.071 20.7H222.203L223.22 21.717V22.68H221.996V22.167L221.573 21.744H219.719L219.26 22.203V25.497L219.719 25.956H221.591L222.032 25.515V24.534H220.682V23.49H223.22V25.965L222.185 27H219.071L218.036 25.965ZM225.558 20.7H226.656L229.464 24.975H229.482V20.7H230.661V27H229.563L226.755 22.734H226.737V27H225.558V20.7ZM233.228 20.7H234.452V27H233.228V20.7ZM238.451 21.735H236.57V20.7H241.556V21.735H239.675V27H238.451V21.735ZM243.671 20.7H244.895V27H243.671V20.7ZM247.373 25.965V21.735L248.408 20.7H251.648L252.683 21.735V25.965L251.648 27H248.408L247.373 25.965ZM251 25.956L251.459 25.497V22.203L251 21.744H249.056L248.597 22.203V25.497L249.056 25.956H251ZM255.115 20.7H256.213L259.021 24.975H259.039V20.7H260.218V27H259.12L256.312 22.734H256.294V27H255.115V20.7ZM129.441 46.028V45.128H130.647V45.659L130.944 45.956H132.807L133.113 45.65V44.606L132.816 44.309H130.431L129.459 43.337V41.672L130.431 40.7H133.275L134.247 41.672V42.581H133.041V42.041L132.744 41.744H130.962L130.665 42.041V42.968L130.962 43.265H133.347L134.319 44.237V46.01L133.329 47H130.413L129.441 46.028ZM137.996 44.426L135.755 40.7H137.096L138.599 43.283H138.617L140.12 40.7H141.461L139.22 44.426V47H137.996V44.426ZM142.986 46.028V45.128H144.192V45.659L144.489 45.956H146.352L146.658 45.65V44.606L146.361 44.309H143.976L143.004 43.337V41.672L143.976 40.7H146.82L147.792 41.672V42.581H146.586V42.041L146.289 41.744H144.507L144.21 42.041V42.968L144.507 43.265H146.892L147.864 44.237V46.01L146.874 47H143.958L142.986 46.028ZM151.404 41.735H149.523V40.7H154.509V41.735H152.628V47H151.404V41.735ZM156.579 40.7H161.133V41.735H157.803V43.328H160.872V44.345H157.803V45.965H161.133V47H156.579V40.7ZM163.387 40.7H164.521L166.393 44.768H166.411L168.292 40.7H169.426V47H168.247V43.166H168.229L166.78 46.118H166.024L164.584 43.166H164.566V47H163.387V40.7Z" fill="white"/>
</g>
<path d="M4 6.54654C4 5.63767 5.11435 5.20007 5.73279 5.86609L27.4726 29.2782C28.8977 30.8129 28.8977 33.1871 27.4726 34.7218L5.73279 58.1339C5.11435 58.7999 4 58.3623 4 57.4535V6.54654Z" fill="white"/>
<path d="M295.541 6.54654C295.541 5.63767 294.427 5.20007 293.809 5.86609L272.069 29.2782C270.644 30.8129 270.644 33.1871 272.069 34.7218L293.809 58.1339C294.427 58.7999 295.541 58.3623 295.541 57.4535V6.54654Z" fill="white"/>
<path d="M9 60L290 60L281.855 54H17.1449L9 60Z" fill="white" fill-opacity="0.4"/>
<path d="M9 4L290 4L281.855 10H17.1449L9 4Z" fill="white" fill-opacity="0.4"/>
<defs>
<filter id="filter0_dd_1_151" x="24.8895" y="8.70001" width="247.329" height="50.3" filterUnits="userSpaceOnUse" color-interpolation-filters="sRGB">
<feFlood flood-opacity="0" result="BackgroundImageFix"/>
<feColorMatrix in="SourceAlpha" type="matrix" values="0 0 0 0 0 0 0 0 0 0 0 0 0 0 0 0 0 0 127 0" result="hardAlpha"/>
<feOffset/>
<feGaussianBlur stdDeviation="6"/>
<feColorMatrix type="matrix" values="0 0 0 0 1 0 0 0 0 1 0 0 0 0 1 0 0 0 0.6 0"/>
<feBlend mode="normal" in2="BackgroundImageFix" result="effect1_dropShadow_1_151"/>
<feColorMatrix in="SourceAlpha" type="matrix" values="0 0 0 0 0 0 0 0 0 0 0 0 0 0 0 0 0 0 127 0" result="hardAlpha"/>
<feOffset/>
<feGaussianBlur stdDeviation="4"/>
<feColorMatrix type="matrix" values="0 0 0 0 1 0 0 0 0 1 0 0 0 0 1 0 0 0 0.25 0"/>
<feBlend mode="normal" in2="effect1_dropShadow_1_151" result="effect2_dropShadow_1_151"/>
<feBlend mode="normal" in="SourceGraphic" in2="effect2_dropShadow_1_151" result="shape"/>
</filter>
</defs>
</svg>
