<svg width="300" height="64" viewBox="0 0 300 64" fill="none" xmlns="http://www.w3.org/2000/svg">
<rect x="0.5" y="0.5" width="299" height="63" rx="1.5" stroke="white" stroke-opacity="0.8"/>
<g filter="url(#filter0_dd_1_160)">
<path d="M61.2076 30H66.1676V31.15H62.5676V33.09H65.6876V34.24H62.5676V37H61.2076V30ZM69.8825 30H71.1225L73.6825 37H72.3025L71.7325 35.45H69.2725L68.7025 37H67.3225L69.8825 30ZM71.4325 34.33L70.5025 31.67H70.4825L69.5825 34.33H71.4325ZM75.6408 35.85V31.15L76.7908 30H80.2108L81.3408 31.13V32.2H79.9808V31.63L79.5108 31.16H77.5108L77.0008 31.67V35.33L77.5108 35.84H79.5108L79.9808 35.37V34.8H81.3408V35.87L80.2108 37H76.7908L75.6408 35.85ZM83.8436 30H85.2036V37H83.8436V30ZM90.0172 30H91.2572L93.8172 37H92.4372L91.8672 35.45H89.4072L88.8372 37H87.4572L90.0172 30ZM91.5672 34.33L90.6372 31.67H90.6172L89.7172 34.33H91.5672ZM96.0221 30H97.3821V35.85H100.882V37H96.0221V30ZM112.852 34.68V37H111.492V34.99L110.892 34.32H108.712V37H107.352V30H111.742L112.812 31.08V33.2L112.132 33.89L112.852 34.68ZM108.712 33.2H111.122L111.472 32.85V31.49L111.122 31.14H108.712V33.2ZM115.6 30H120.66V31.15H116.96V32.92H120.37V34.05H116.96V35.85H120.66V37H115.6V30ZM123.065 35.85V31.15L124.215 30H127.635L128.765 31.13V32.2H127.405V31.63L126.935 31.16H124.935L124.425 31.67V35.33L124.935 35.84H126.935L127.405 35.37V34.8H128.765V35.87L127.635 37H124.215L123.065 35.85ZM131.117 35.85V31.15L132.267 30H135.867L137.017 31.15V35.85L135.867 37H132.267L131.117 35.85ZM135.147 35.84L135.657 35.33V31.67L135.147 31.16H132.987L132.477 31.67V35.33L132.987 35.84H135.147ZM139.619 35.85V31.15L140.769 30H144.249L145.379 31.13V32.2H144.019V31.63L143.549 31.16H141.489L140.979 31.67V35.33L141.489 35.84H143.569L144.059 35.35V34.26H142.559V33.1H145.379V35.85L144.229 37H140.769L139.619 35.85ZM147.977 30H149.197L152.317 34.75H152.337V30H153.647V37H152.427L149.307 32.26H149.287V37H147.977V30ZM156.5 30H157.86V37H156.5V30ZM162.303 31.15H160.213V30H165.753V31.15H163.663V37H162.303V31.15ZM168.103 30H169.463V37H168.103V30ZM172.217 35.85V31.15L173.367 30H176.967L178.117 31.15V35.85L176.967 37H173.367L172.217 35.85ZM176.247 35.84L176.757 35.33V31.67L176.247 31.16H174.087L173.577 31.67V35.33L174.087 35.84H176.247ZM180.819 30H182.039L185.159 34.75H185.179V30H186.489V37H185.269L182.149 32.26H182.129V37H180.819V30ZM193.366 35.92V34.92H194.706V35.51L195.036 35.84H197.106L197.446 35.5V34.34L197.116 34.01H194.466L193.386 32.93V31.08L194.466 30H197.626L198.706 31.08V32.09H197.366V31.49L197.036 31.16H195.056L194.726 31.49V32.52L195.056 32.85H197.706L198.786 33.93V35.9L197.686 37H194.446L193.366 35.92ZM202.872 34.14L200.382 30H201.872L203.542 32.87H203.562L205.232 30H206.722L204.232 34.14V37H202.872V34.14ZM208.417 35.92V34.92H209.757V35.51L210.087 35.84H212.157L212.497 35.5V34.34L212.167 34.01H209.517L208.437 32.93V31.08L209.517 30H212.677L213.757 31.08V32.09H212.417V31.49L212.087 31.16H210.107L209.777 31.49V32.52L210.107 32.85H212.757L213.837 33.93V35.9L212.737 37H209.497L208.417 35.92ZM217.77 31.15H215.68V30H221.22V31.15H219.13V37H217.77V31.15ZM223.52 30H228.58V31.15H224.88V32.92H228.29V34.05H224.88V35.85H228.58V37H223.52V30ZM231.085 30H232.345L234.425 34.52H234.445L236.535 30H237.795V37H236.485V32.74H236.465L234.855 36.02H234.015L232.415 32.74H232.395V37H231.085V30Z" fill="white"/>
</g>
<path d="M4 6.54654C4 5.63767 5.11435 5.20007 5.73279 5.86609L27.4726 29.2782C28.8977 30.8129 28.8977 33.1871 27.4726 34.7218L5.73279 58.1339C5.11435 58.7999 4 58.3623 4 57.4535V6.54654Z" fill="white"/>
<path d="M295.541 6.54654C295.541 5.63767 294.427 5.20007 293.809 5.86609L272.069 29.2782C270.644 30.8129 270.644 33.1871 272.069 34.7218L293.809 58.1339C294.427 58.7999 295.541 58.3623 295.541 57.4535V6.54654Z" fill="white"/>
<path d="M9 60L290 60L281.855 54H17.1449L9 60Z" fill="white" fill-opacity="0.4"/>
<path d="M9 4L290 4L281.855 10H17.1449L9 4Z" fill="white" fill-opacity="0.4"/>
<defs>
<filter id="filter0_dd_1_160" x="49.2076" y="18" width="200.587" height="31" filterUnits="userSpaceOnUse" color-interpolation-filters="sRGB">
<feFlood flood-opacity="0" result="BackgroundImageFix"/>
<feColorMatrix in="SourceAlpha" type="matrix" values="0 0 0 0 0 0 0 0 0 0 0 0 0 0 0 0 0 0 127 0" result="hardAlpha"/>
<feOffset/>
<feGaussianBlur stdDeviation="6"/>
<feColorMatrix type="matrix" values="0 0 0 0 1 0 0 0 0 1 0 0 0 0 1 0 0 0 0.6 0"/>
<feBlend mode="normal" in2="BackgroundImageFix" result="effect1_dropShadow_1_160"/>
<feColorMatrix in="SourceAlpha" type="matrix" values="0 0 0 0 0 0 0 0 0 0 0 0 0 0 0 0 0 0 127 0" result="hardAlpha"/>
<feOffset/>
<feGaussianBlur stdDeviation="4"/>
<feColorMatrix type="matrix" values="0 0 0 0 1 0 0 0 0 1 0 0 0 0 1 0 0 0 0.25 0"/>
<feBlend mode="normal" in2="effect1_dropShadow_1_160" result="effect2_dropShadow_1_160"/>
<feBlend mode="normal" in="SourceGraphic" in2="effect2_dropShadow_1_160" result="shape"/>
</filter>
</defs>
</svg>
