<svg width="302" height="89" viewBox="0 0 302 89" fill="none" xmlns="http://www.w3.org/2000/svg">
<path d="M301 70.2588L296.99 73.904H209.505L205.86 70.2588H96.5043L92.8591 73.904H5.37424L1 70.2588M297.719 60.7813L273.357 12.0557C269.969 5.28005 263.043 1 255.468 1H46.8965C39.3211 1 32.3958 5.28005 29.008 12.0557L4.6452 60.7813" stroke="white"/>
<path d="M97.5979 70.9879H204.767L208.048 74.2686H94.3173L97.5979 70.9879Z" fill="white"/>
<path d="M47.2939 4.28064H125.301L128.582 0.999959H44.0132L47.2939 4.28064Z" fill="white"/>
<path d="M176.334 4.28064H254.341L257.622 0.999959H173.053L176.334 4.28064Z" fill="white"/>
<path d="M8.28273 60.0719L26.8895 22.9152L25.425 18.5127L3.88035 61.5364L8.28273 60.0719Z" fill="white"/>
<path d="M294.063 60.0719L275.457 22.9152L276.921 18.5127L298.466 61.5364L294.063 60.0719Z" fill="white"/>
<path d="M45.4714 65.1555H29.2454C27.9252 65.1555 26.618 64.8941 25.3993 64.3863L23.3555 63.5347C20.7135 62.4339 19.533 59.3441 20.7679 56.762L26.5164 44.7424L37.3158 23.1435C39.8567 18.0618 45.0506 14.8517 50.7322 14.8517H110.903M256.893 65.1555H273.193C274.465 65.1555 275.726 64.9128 276.907 64.4403L279.187 63.5285C281.903 62.4421 283.11 59.2664 281.802 56.65L275.848 44.7424L265.049 23.1435C262.508 18.0618 257.314 14.8517 251.632 14.8517H191.462" stroke="white"/>
<path fill-rule="evenodd" clip-rule="evenodd" d="M60.7814 30.8906H44.0135L32.9782 52.9611L32.3489 54.2198H49.1168L60.7814 30.8906ZM41.8261 30.8906L30.1615 54.2199L26.1518 53.4909L37.0874 31.6197L41.8261 30.8906ZM62.9682 30.8906H79.7361L68.0714 54.2198H51.3035L51.9329 52.9611L62.9682 30.8906ZM98.6912 30.8906H81.9232L70.888 52.9611L70.2586 54.2198H87.0265L98.6912 30.8906Z" fill="url(#paint0_linear_1_123)"/>
<path fill-rule="evenodd" clip-rule="evenodd" d="M241.583 30.8905H258.351L269.386 52.961L270.015 54.2198H253.248L241.583 30.8905ZM260.538 30.8906L272.203 54.2199L276.213 53.4908L265.277 31.6196L260.538 30.8906ZM239.396 30.8905H222.628L234.292 54.2198H251.06L250.431 52.961L239.396 30.8905ZM203.673 30.8905H220.441L231.476 52.961L232.106 54.2198H215.338L203.673 30.8905Z" fill="url(#paint1_linear_1_123)"/>
<path d="M133.742 22.4534L139.142 17.5484V16.4834L138.647 15.9884H136.217L135.722 16.4834V17.5484H133.682V15.8684L135.302 14.2484H139.562L141.182 15.8684V18.1484L135.857 22.8884V23.0384H141.242V24.7484H133.742V22.4534ZM142.595 23.0084V15.9884L144.335 14.2484H148.985L150.725 15.9884V23.0084L148.985 24.7484H144.335L142.595 23.0084ZM148.025 23.0084L148.685 22.3484V16.6484L148.025 15.9884H145.295L144.635 16.6484V22.3484L145.295 23.0084H148.025ZM152.141 22.4534L157.541 17.5484V16.4834L157.046 15.9884H154.616L154.121 16.4834V17.5484H152.081V15.8684L153.701 14.2484H157.961L159.581 15.8684V18.1484L154.256 22.8884V23.0384H159.641V24.7484H152.141V22.4534ZM160.694 23.1284V21.4784H162.734V22.5134L163.229 23.0084H165.929L166.424 22.5134V20.8184L165.944 20.3384H162.944V18.5984H165.944L166.424 18.1184V16.4834L165.929 15.9884H163.319L162.824 16.4834V17.5184H160.784V15.8684L162.404 14.2484H166.844L168.464 15.8684V18.7184L167.699 19.4684L168.464 20.2334V23.1284L166.844 24.7484H162.314L160.694 23.1284Z" fill="#DEDEDE"/>
<path opacity="0.8" d="M57.984 62.1103V70.5103H57.144V62.9503L56.592 63.3703V62.5303L57.144 62.1103H57.984ZM62.0633 65.4823C62.2873 65.5223 62.4753 65.6303 62.6273 65.8063C62.7793 65.9823 62.8553 66.1903 62.8553 66.4303V69.5623C62.8553 69.8023 62.7793 70.0103 62.6273 70.1863C62.4753 70.3623 62.2873 70.4703 62.0633 70.5103H60.2873C60.0553 70.4703 59.8633 70.3623 59.7113 70.1863C59.5593 70.0103 59.4833 69.8023 59.4833 69.5623V68.2303H60.3233V69.5623C60.3233 69.6423 60.3633 69.6823 60.4433 69.6823H61.9073C61.9793 69.6823 62.0153 69.6423 62.0153 69.5623V66.4303C62.0153 66.3503 61.9793 66.3103 61.9073 66.3103H60.4433C60.3633 66.3103 60.3233 66.3503 60.3233 66.4303V66.8383H59.4833V66.4303V66.4183V62.1103H62.8313V62.9503H60.3953C60.3473 62.9823 60.3233 63.0183 60.3233 63.0583V65.4823H62.0633ZM65.1918 68.0743V69.5743C65.1918 69.6223 65.2158 69.6543 65.2638 69.6703H66.7878C66.8358 69.6623 66.8598 69.6303 66.8598 69.5743V68.6743H67.6998V70.5103H64.3518V67.7623L66.8598 64.8703V63.0583C66.8598 62.9863 66.8238 62.9503 66.7518 62.9503H65.3118C65.2318 62.9503 65.1918 62.9863 65.1918 63.0583V63.9583H64.3518V63.0583C64.3518 62.8263 64.4278 62.6223 64.5798 62.4463C64.7318 62.2623 64.9238 62.1503 65.1558 62.1103H66.8958C67.1278 62.1503 67.3198 62.2623 67.4718 62.4463C67.6238 62.6223 67.6998 62.8263 67.6998 63.0583V65.1583L65.1918 68.0743ZM69.8208 69.4663V70.5103H68.9808V69.4663H69.8208ZM73.3689 70.5103C73.1449 70.4703 72.9569 70.3623 72.8049 70.1863C72.6529 70.0103 72.5769 69.8023 72.5769 69.5623V63.0583C72.5769 62.8263 72.6529 62.6223 72.8049 62.4463C72.9569 62.2623 73.1449 62.1503 73.3689 62.1103H75.1449C75.3769 62.1503 75.5689 62.2623 75.7209 62.4463C75.8729 62.6223 75.9489 62.8263 75.9489 63.0583V64.3903H75.1089V63.0583C75.1089 62.9863 75.0689 62.9503 74.9889 62.9503H73.5249C73.4529 62.9503 73.4169 62.9863 73.4169 63.0583V65.4823H75.1449C75.3769 65.5223 75.5689 65.6303 75.7209 65.8063C75.8729 65.9823 75.9489 66.1903 75.9489 66.4303V69.5623C75.9489 69.8023 75.8729 70.0103 75.7209 70.1863C75.5689 70.3623 75.3769 70.4703 75.1449 70.5103H73.3689ZM73.4169 69.5623C73.4169 69.6423 73.4529 69.6823 73.5249 69.6823H74.9889C75.0689 69.6823 75.1089 69.6423 75.1089 69.5623V66.4303C75.1089 66.3503 75.0689 66.3103 74.9889 66.3103H73.5249C73.4529 66.3103 73.4169 66.3503 73.4169 66.4303V69.5623ZM80.0254 62.1103C80.2494 62.1503 80.4374 62.2623 80.5894 62.4463C80.7414 62.6223 80.8174 62.8263 80.8174 63.0583V69.5623C80.8174 69.8023 80.7414 70.0103 80.5894 70.1863C80.4374 70.3623 80.2494 70.4703 80.0254 70.5103H78.2494C78.0174 70.4703 77.8254 70.3623 77.6734 70.1863C77.5214 70.0103 77.4454 69.8023 77.4454 69.5623V68.2303H78.2854V69.5623C78.2854 69.6423 78.3254 69.6823 78.4054 69.6823H79.8694C79.9414 69.6823 79.9774 69.6423 79.9774 69.5623V67.1383H78.2494C78.0174 67.0983 77.8254 66.9903 77.6734 66.8143C77.5214 66.6383 77.4454 66.4343 77.4454 66.2023V63.0583C77.4454 62.8263 77.5214 62.6223 77.6734 62.4463C77.8254 62.2623 78.0174 62.1503 78.2494 62.1103H80.0254ZM79.9774 63.0583C79.9774 62.9863 79.9414 62.9503 79.8694 62.9503H78.4054C78.3254 62.9503 78.2854 62.9863 78.2854 63.0583V66.2023C78.2854 66.2743 78.3254 66.3103 78.4054 66.3103H79.8694C79.9414 66.3103 79.9774 66.2743 79.9774 66.2023V63.0583Z" fill="white"/>
<path opacity="0.8" d="M220.904 68.0743V69.5743C220.904 69.6223 220.928 69.6543 220.976 69.6703H222.5C222.548 69.6623 222.572 69.6303 222.572 69.5743V68.6743H223.412V70.5103H220.064V67.7623L222.572 64.8703V63.0583C222.572 62.9863 222.536 62.9503 222.464 62.9503H221.024C220.944 62.9503 220.904 62.9863 220.904 63.0583V63.9583H220.064V63.0583C220.064 62.8263 220.14 62.6223 220.292 62.4463C220.444 62.2623 220.636 62.1503 220.868 62.1103H222.608C222.84 62.1503 223.032 62.2623 223.184 62.4463C223.336 62.6223 223.412 62.8263 223.412 63.0583V65.1583L220.904 68.0743ZM227.489 65.4823C227.713 65.5223 227.901 65.6303 228.053 65.8063C228.205 65.9823 228.281 66.1903 228.281 66.4303V69.5623C228.281 69.8023 228.205 70.0103 228.053 70.1863C227.901 70.3623 227.713 70.4703 227.489 70.5103H225.713C225.481 70.4703 225.289 70.3623 225.137 70.1863C224.985 70.0103 224.909 69.8023 224.909 69.5623V68.2303H225.749V69.5623C225.749 69.6423 225.789 69.6823 225.869 69.6823H227.333C227.405 69.6823 227.441 69.6423 227.441 69.5623V66.4303C227.441 66.3503 227.405 66.3103 227.333 66.3103H225.869C225.789 66.3103 225.749 66.3503 225.749 66.4303V66.8383H224.909V66.4303V66.4183V62.1103H228.257V62.9503H225.821C225.773 62.9823 225.749 63.0183 225.749 63.0583V65.4823H227.489ZM231.026 62.1103V70.5103H230.186V62.9503L229.634 63.3703V62.5303L230.186 62.1103H231.026ZM233.149 69.4663V70.5103H232.309V69.4663H233.149ZM239.241 66.2143C239.249 66.2303 239.253 66.2543 239.253 66.2863V67.4743V68.9983V69.5743C239.253 69.8063 239.177 70.0103 239.025 70.1863C238.873 70.3623 238.681 70.4703 238.449 70.5103H236.709C236.477 70.4703 236.285 70.3623 236.133 70.1863C235.981 70.0103 235.905 69.8063 235.905 69.5743V68.6743H236.745V69.5743C236.745 69.6463 236.785 69.6823 236.865 69.6823H238.305C238.377 69.6823 238.413 69.6463 238.413 69.5743V67.4743V66.2983H236.673V65.4583H238.413V65.1583V63.0583C238.413 62.9863 238.377 62.9503 238.305 62.9503H236.865C236.785 62.9503 236.745 62.9863 236.745 63.0583V63.9583H235.905V63.0583C235.905 62.8263 235.981 62.6223 236.133 62.4463C236.285 62.2623 236.477 62.1503 236.709 62.1103H238.449C238.681 62.1503 238.873 62.2623 239.025 62.4463C239.177 62.6223 239.253 62.8263 239.253 63.0583V63.6343V65.1583V65.5063C239.253 65.5463 239.249 65.5743 239.241 65.5903C239.113 65.7423 238.957 65.8463 238.773 65.9023C238.973 65.9583 239.129 66.0623 239.241 66.2143ZM241.59 68.0743V69.5743C241.59 69.6223 241.614 69.6543 241.662 69.6703H243.186C243.234 69.6623 243.258 69.6303 243.258 69.5743V68.6743H244.098V70.5103H240.75V67.7623L243.258 64.8703V63.0583C243.258 62.9863 243.222 62.9503 243.15 62.9503H241.71C241.63 62.9503 241.59 62.9863 241.59 63.0583V63.9583H240.75V63.0583C240.75 62.8263 240.826 62.6223 240.978 62.4463C241.13 62.2623 241.322 62.1503 241.554 62.1103H243.294C243.526 62.1503 243.718 62.2623 243.87 62.4463C244.022 62.6223 244.098 62.8263 244.098 63.0583V65.1583L241.59 68.0743Z" fill="white"/>
<g filter="url(#filter0_d_1_123)">
<path d="M111.082 46.9999H113.562L118.682 60.9999H115.922L114.782 57.8999H109.862L108.722 60.9999H105.962L111.082 46.9999ZM114.182 55.6599L112.322 50.3399H112.282L110.482 55.6599H114.182ZM120.091 46.9999H128.871L131.011 49.1599V54.0599L128.851 56.2399H122.811V60.9999H120.091V46.9999ZM127.631 53.9599L128.331 53.2599V49.9799L127.631 49.2799H122.811V53.9599H127.631ZM133.021 46.9999H141.801L143.941 49.1599V54.0599L141.781 56.2399H135.741V60.9999H133.021V46.9999ZM140.561 53.9599L141.261 53.2599V49.9799L140.561 49.2799H135.741V53.9599H140.561ZM151.4 46.9999H153.84L160.08 56.4999H160.12V46.9999H162.74V60.9999H160.3L154.06 51.5199H154.02V60.9999H151.4V46.9999ZM169.265 46.9999H171.745L176.865 60.9999H174.105L172.965 57.8999H168.045L166.905 60.9999H164.145L169.265 46.9999ZM172.365 55.6599L170.505 50.3399H170.465L168.665 55.6599H172.365ZM178.275 46.9999H180.795L184.955 56.0399H184.995L189.175 46.9999H191.695V60.9999H189.075V52.4799H189.035L185.815 59.0399H184.135L180.935 52.4799H180.895V60.9999H178.275V46.9999ZM194.291 46.9999H204.411V49.2999H197.011V52.8399H203.831V55.0999H197.011V58.6999H204.411V60.9999H194.291V46.9999Z" fill="white"/>
</g>
<defs>
<filter id="filter0_d_1_123" x="85.9618" y="26.9999" width="138.449" height="54" filterUnits="userSpaceOnUse" color-interpolation-filters="sRGB">
<feFlood flood-opacity="0" result="BackgroundImageFix"/>
<feColorMatrix in="SourceAlpha" type="matrix" values="0 0 0 0 0 0 0 0 0 0 0 0 0 0 0 0 0 0 127 0" result="hardAlpha"/>
<feOffset/>
<feGaussianBlur stdDeviation="10"/>
<feColorMatrix type="matrix" values="0 0 0 0 1 0 0 0 0 1 0 0 0 0 1 0 0 0 0.4 0"/>
<feBlend mode="normal" in2="BackgroundImageFix" result="effect1_dropShadow_1_123"/>
<feBlend mode="normal" in="SourceGraphic" in2="effect1_dropShadow_1_123" result="shape"/>
</filter>
<linearGradient id="paint0_linear_1_123" x1="23.2356" y1="26.1518" x2="90.3073" y2="56.0424" gradientUnits="userSpaceOnUse">
<stop stop-color="#C4C4C4"/>
<stop offset="0.869042" stop-color="#C4C4C4" stop-opacity="0"/>
</linearGradient>
<linearGradient id="paint1_linear_1_123" x1="272.203" y1="27.6098" x2="216.067" y2="57.865" gradientUnits="userSpaceOnUse">
<stop stop-color="#C4C4C4"/>
<stop offset="0.837503" stop-color="#C4C4C4" stop-opacity="0"/>
</linearGradient>
</defs>
</svg>
